<svg xmlns="http://www.w3.org/2000/svg" viewBox="0 0 1200 200">
  <!-- Background -->
  <rect width="1200" height="200" fill="#04204b"/>

  <!-- Top-right corner geometric pattern: dot grid in #253081 -->
  <g fill="#253081">
    <circle cx="870" cy="15" r="2"/><circle cx="890" cy="15" r="2"/><circle cx="910" cy="15" r="2"/><circle cx="930" cy="15" r="2"/><circle cx="950" cy="15" r="2"/><circle cx="970" cy="15" r="2"/><circle cx="990" cy="15" r="2"/><circle cx="1010" cy="15" r="2"/><circle cx="1030" cy="15" r="2"/><circle cx="1050" cy="15" r="2"/><circle cx="1070" cy="15" r="2"/><circle cx="1090" cy="15" r="2"/><circle cx="1110" cy="15" r="2"/><circle cx="1130" cy="15" r="2"/><circle cx="1150" cy="15" r="2"/><circle cx="1170" cy="15" r="2"/>
    <circle cx="870" cy="35" r="2"/><circle cx="890" cy="35" r="2"/><circle cx="910" cy="35" r="2"/><circle cx="930" cy="35" r="2"/><circle cx="950" cy="35" r="2"/><circle cx="970" cy="35" r="2"/><circle cx="990" cy="35" r="2"/><circle cx="1010" cy="35" r="2"/><circle cx="1030" cy="35" r="2"/><circle cx="1050" cy="35" r="2"/><circle cx="1070" cy="35" r="2"/><circle cx="1090" cy="35" r="2"/><circle cx="1110" cy="35" r="2"/><circle cx="1130" cy="35" r="2"/><circle cx="1150" cy="35" r="2"/><circle cx="1170" cy="35" r="2"/>
    <circle cx="870" cy="55" r="2"/><circle cx="890" cy="55" r="2"/><circle cx="910" cy="55" r="2"/><circle cx="930" cy="55" r="2"/><circle cx="950" cy="55" r="2"/><circle cx="970" cy="55" r="2"/><circle cx="990" cy="55" r="2"/><circle cx="1010" cy="55" r="2"/><circle cx="1030" cy="55" r="2"/><circle cx="1050" cy="55" r="2"/><circle cx="1070" cy="55" r="2"/><circle cx="1090" cy="55" r="2"/><circle cx="1110" cy="55" r="2"/><circle cx="1130" cy="55" r="2"/><circle cx="1150" cy="55" r="2"/><circle cx="1170" cy="55" r="2"/>
  </g>

  <!-- Diagonal divider -->
  <polygon points="310,0 370,0 340,200 280,200" fill="#253081"/>

  <!-- MOTIF ZONE: 7 horizontal cladding panels (shiplap profile) -->
  <!-- Each panel: 320px wide x 20px tall, with 4px shadow ledge at bottom -->
  <!-- Panel pitch: 24px (20px face + 4px shadow). 7 panels, total: 7*24 - 4 = 164px -->
  <!-- Start y = (200-164)/2 = 18 -->

  <!-- Panel 1: y=18 -->
  <rect x="20" y="18" width="320" height="20" fill="#ffffff" rx="1"/>
  <rect x="20" y="38" width="320" height="4" fill="#253081"/>

  <!-- Panel 2: y=42 -->
  <rect x="20" y="42" width="320" height="20" fill="#ffffff" rx="1"/>
  <rect x="20" y="62" width="320" height="4" fill="#253081"/>

  <!-- Panel 3: y=66 -->
  <rect x="20" y="66" width="320" height="20" fill="#ffffff" rx="1"/>
  <rect x="20" y="86" width="320" height="4" fill="#253081"/>

  <!-- Panel 4: y=90 -->
  <rect x="20" y="90" width="320" height="20" fill="#ffffff" rx="1"/>
  <rect x="20" y="110" width="320" height="4" fill="#253081"/>

  <!-- Panel 5: y=114 -->
  <rect x="20" y="114" width="320" height="20" fill="#ffffff" rx="1"/>
  <rect x="20" y="134" width="320" height="4" fill="#253081"/>

  <!-- Panel 6: y=138 -->
  <rect x="20" y="138" width="320" height="20" fill="#ffffff" rx="1"/>
  <rect x="20" y="158" width="320" height="4" fill="#253081"/>

  <!-- Panel 7: y=162 -->
  <rect x="20" y="162" width="320" height="20" fill="#ffffff" rx="1"/>
  <!-- No shadow on last panel (bottom edge) -->

  <!-- TEXT ZONE -->
  <text x="400" y="95" font-family="'Open Sans', Arial, sans-serif" font-size="32" font-weight="700" fill="#ffffff">Cladding Calculator</text>
  <text x="400" y="128" font-family="'Open Sans', Arial, sans-serif" font-size="16" font-weight="400" fill="#ffd407">Panels, battens &amp; fixings</text>
</svg>
