<!-- Generator: Adobe Illustrator 19.2.0, SVG Export Plug-In  -->
<svg version="1.1"
	 xmlns="http://www.w3.org/2000/svg" xmlns:xlink="http://www.w3.org/1999/xlink" xmlns:a="http://ns.adobe.com/AdobeSVGViewerExtensions/3.0/"
	 x="0px" y="0px" width="435.1px" height="125.2px" viewBox="0 0 435.1 125.2" style="enable-background:new 0 0 435.1 125.2;"
	 xml:space="preserve">
<style type="text/css">
	.st0{fill:#004799;}
	.st1{fill:#FFFFFF;}
</style>
<defs>
</defs>
<path class="st0" d="M212.3,62.6c0,34.6-47.5,62.6-106.2,62.6C47.5,125.2,0,97.2,0,62.6C0,28,47.5,0,106.2,0
	C164.8,0,212.3,28,212.3,62.6"/>
<path class="st1" d="M17.4,56.6c0,9.3,7.8,11,13.5,12.2c4.4,1,7.1,1.7,7.1,4c0,2.2-3.1,3.2-5.2,3.2c-3.6,0-5.8-1.7-8.2-4.3l-0.8-0.8
	l-8,7.5l0.7,0.8c3.7,4.2,8.9,6.2,15.7,6.2c8.1,0,17.5-3.5,17.5-13.3c0-9.7-8.1-11.5-14.1-12.8c-4-0.9-6.5-1.5-6.5-3.3
	c0-2.3,2.9-2.9,4.4-2.9c2.8,0,4.9,1.1,6.5,3.4l0.7,1l8-7.2l-0.6-0.8c-2.9-4-8.2-6.2-14.4-6.2C25.6,43.2,17.4,47.3,17.4,56.6"/>
<path class="st1" d="M94,65c0-13.4-7.3-21.8-18.9-21.8c-12.6,0-21.8,8.9-21.8,21.1c0,12.2,9.2,21.1,21.8,21.1c6.9,0,12.6-2.7,17-8
	l0.7-0.9l-8.6-6.5l-0.7,0.8c-2.6,3.2-5.6,4.7-9.4,4.7c-4.5,0-7.9-2.6-8.9-6.8c2.5,0,28.8,0,28.8,0V65 M65.3,59.3
	c1-4.3,4-6.8,8.5-6.8c4.9,0,7.9,2.5,8.4,6.8H65.3z"/>
<polyline class="st1" points="109.5,28.7 98.8,28.7 98.8,84.4 110.6,84.4 110.6,28.7 109.5,28.7 "/>
<path class="st1" d="M115.4,64.2c0,12.2,9.2,21.1,21.8,21.1c3.6,0,10.4-1.5,14.5-5.6l0.8-0.8l-8-8.6l-0.8,1.1
	c-1.5,2-3.9,3.1-6.5,3.1c-6.6,0-10.1-5.2-10.1-10.3c0-5.1,3.5-10.3,10.1-10.3c2,0,4.2,1.2,6.4,3.5l0.8,0.8l8.1-8.1l-0.7-0.8
	c-3.5-3.9-8.9-6.2-14.6-6.2C124.6,43.2,115.4,52,115.4,64.2"/>
<path class="st1" d="M175,43.2c-12.6,0-21.8,8.9-21.8,21.1c0,12.2,9.2,21.1,21.8,21.1c12.6,0,21.8-8.9,21.8-21.1
	C196.8,52,187.6,43.2,175,43.2 M175,74.5c-6.6,0-10.1-5.2-10.1-10.3c0-5.1,3.5-10.3,10.1-10.3c6.6,0,10.1,5.2,10.1,10.3
	C185.1,69.4,181.6,74.5,175,74.5z"/>
<path class="st0" d="M29.7,14.3H0.1l0,6.9h19.1C22.4,18.8,25.9,16.5,29.7,14.3"/>
<path class="st0" d="M182.6,14.3c3.8,2.1,7.3,4.5,10.6,6.9h241.9v-6.9H182.6"/>
<path class="st0" d="M29.7,110.8H0.1l0-6.9h19.1C22.4,106.3,25.9,108.6,29.7,110.8"/>
<path class="st0" d="M182.6,110.8c3.8-2.2,7.3-4.5,10.6-6.9h241.9v6.9H182.6"/>
<path class="st0" d="M221.8,30h12.3c5.8,0,12,1.2,12,8.4c0,3.7-2.3,6.2-5.7,7.2v0.1c4.3,0.6,7.2,3.8,7.2,8c0,6.9-6.5,9.2-12.4,9.2
	h-13.5V30 M229.1,43.2h5.3c2.2,0,4.6-0.9,4.6-3.6c0-2.7-2.6-3.4-4.9-3.4h-4.9V43.2z M229.1,56.8h6.5c2.3,0,4.8-1,4.8-3.9
	c0-3.1-3.5-3.6-5.9-3.6h-5.5V56.8z"/>
<path class="st0" d="M278.2,50.3c0,7.8-4.7,13.5-13.9,13.5c-9.2,0-13.9-5.8-13.9-13.5V30h7.2V50c0,4,2.8,7.1,6.6,7.1
	c3.8,0,6.6-3.1,6.6-7.1V30h7.3V50.3"/>
<rect x="283.2" y="30" class="st0" width="7.3" height="32.9"/>
<polyline class="st0" points="295.8,30 303.1,30 303.1,56.3 316.5,56.3 316.5,62.9 295.8,62.9 295.8,30 "/>
<path class="st0" d="M320.7,30h10.9c10.6,0,19.5,4.5,19.5,16.5c0,10.6-8.7,16.4-18.5,16.4h-11.9V30 M328,56.3h3.8
	c6.7,0,11.8-2.6,11.8-10c0-6.5-5.2-9.5-11.3-9.5H328V56.3z"/>
<polyline class="st0" points="355.6,30 378,30 378,36.7 362.9,36.7 362.9,42.9 377.1,42.9 377.1,49.6 362.9,49.6 362.9,56.3
	378.8,56.3 378.8,62.9 355.6,62.9 355.6,30 "/>
<path class="st0" d="M383.1,30h12.7c6.7,0,12.4,2.3,12.4,10c0,4.6-2.5,8.2-7.1,9l8.4,13.9h-8.7l-6.9-13.2h-3.6v13.2h-7.3V30
	 M390.3,43.7h4.3c2.6,0,6.1-0.1,6.1-3.7c0-3.3-3-3.8-5.6-3.8h-4.7V43.7z"/>
<path class="st0" d="M429.7,38.1c-1.2-1.5-3.5-2.2-5.3-2.2c-2,0-4.9,0.9-4.9,3.4c0,6,15.2,2.1,15.2,13.7c0,7.3-5.9,10.8-12.7,10.8
	c-4.2,0-7.9-1.3-11.1-4.1l5.2-5.7c1.5,2,3.9,3.1,6.3,3.1c2.4,0,5-1.1,5-3.4c0-6-15.4-2.8-15.4-13.8c0-7,6.1-10.7,12.5-10.7
	c3.7,0,7.3,1,10.1,3.4L429.7,38.1"/>
<polyline class="st0" points="221.6,71.3 227.3,71.3 231,86.4 231.1,86.4 236,71.3 240.8,71.3 245.7,86.8 245.8,86.8 249.7,71.3
	254.9,71.3 248.1,94.8 243.5,94.8 238.3,78.5 238.2,78.5 233,94.8 228.6,94.8 221.6,71.3 "/>
<path class="st0" d="M262.8,71.3h4.3l10.2,23.5h-5.8l-2-5h-9.1l-2,5h-5.7L262.8,71.3 M264.8,78.1l-2.9,7.3h5.7L264.8,78.1z"/>
<path class="st0" d="M280.1,71.3h9.1c4.8,0,8.9,1.7,8.9,7.1c0,3.3-1.8,5.8-5.1,6.4l6,9.9h-6.2l-4.9-9.4h-2.6v9.4h-5.2V71.3
	 M285.2,81h3.1c1.9,0,4.3-0.1,4.3-2.6c0-2.4-2.1-2.7-4-2.7h-3.4V81z"/>
<polyline class="st0" points="303.1,71.3 319,71.3 319,76.1 308.2,76.1 308.2,80.5 318.4,80.5 318.4,85.2 308.2,85.2 308.2,90
	319.6,90 319.6,94.8 303.1,94.8 303.1,71.3 "/>
<polyline class="st0" points="323.3,71.3 328.5,71.3 328.5,80.1 338.6,80.1 338.6,71.3 343.7,71.3 343.7,94.8 338.6,94.8
	338.6,84.6 328.5,84.6 328.5,94.8 323.3,94.8 323.3,71.3 "/>
<path class="st0" d="M359.5,70.7c7.3,0,12.7,4.8,12.7,12.3c0,7.5-5.3,12.3-12.7,12.3c-7.3,0-12.7-4.8-12.7-12.3
	C346.8,75.5,352.2,70.7,359.5,70.7 M359.5,90.6c4.4,0,7.3-3.2,7.3-7.6c0-4.4-2.9-7.6-7.3-7.6c-4.4,0-7.3,3.2-7.3,7.6
	C352.2,87.4,355.1,90.6,359.5,90.6z"/>
<path class="st0" d="M395.1,85.7c0,5.5-3.4,9.7-9.9,9.7c-6.5,0-9.9-4.1-9.9-9.7V71.3h5.2v14.2c0,2.9,2,5.1,4.7,5.1
	c2.7,0,4.7-2.2,4.7-5.1V71.3h5.2V85.7"/>
<path class="st0" d="M411,77c-0.8-1.1-2.5-1.6-3.8-1.6c-1.5,0-3.5,0.7-3.5,2.4c0,4.3,10.8,1.5,10.8,9.8c0,5.2-4.2,7.7-9.1,7.7
	c-3,0-5.7-0.9-7.9-3l3.7-4c1.1,1.4,2.8,2.2,4.5,2.2c1.7,0,3.6-0.8,3.6-2.5c0-4.3-11-2-11-9.8c0-5,4.3-7.6,9-7.6
	c2.7,0,5.2,0.7,7.2,2.5L411,77"/>
<polyline class="st0" points="418.2,71.3 434.2,71.3 434.2,76.1 423.4,76.1 423.4,80.5 433.6,80.5 433.6,85.2 423.4,85.2 423.4,90
	434.8,90 434.8,94.8 418.2,94.8 418.2,71.3 "/>
</svg>
